<svg xmlns="http://www.w3.org/2000/svg" width="400" height="120" viewBox="0 0 400 120">
<rect x="0.5" y="0.5" width="399" height="119" rx="4.5" fill="#0d1117" stroke="#30363d"/>
<svg x="20" y="14" width="16" height="16" viewBox="0 0 16 16"><path fill-rule="evenodd" d="M2 2.5A2.5 2.5 0 0 1 4.5 0h8.75a.75.75 0 0 1 .75.75v12.5a.75.75 0 0 1-.75.75h-2.5a.75.75 0 0 1 0-1.5h1.75v-2h-8a1 1 0 0 0-.714 1.7.75.75 0 1 1-1.072 1.05A2.495 2.495 0 0 1 2 11.5zm10.5-1h-8a1 1 0 0 0-1 1v6.708A2.486 2.486 0 0 1 4.5 9h8zM5 12.25a.25.25 0 0 1 .25-.25h3.5a.25.25 0 0 1 .25.25v3.25a.25.25 0 0 1-.4.2l-1.45-1.087a.25.25 0 0 0-.3 0L5.4 15.7a.25.25 0 0 1-.4-.2z" fill="#8b949e"/></svg>
<text x="44" y="28" font-family="-apple-system, BlinkMacSystemFont, Segoe UI, Helvetica, Arial, sans-serif" font-size="14" font-weight="bold" fill="#58a6ff">ha-MU-TH-UR-6000-cards</text>
<text x="20" y="50" font-family="-apple-system, BlinkMacSystemFont, Segoe UI, Helvetica, Arial, sans-serif" font-size="12" fill="#8b949e">A series of cards for Home Assistant based on the</text>
<text x="20" y="66" font-family="-apple-system, BlinkMacSystemFont, Segoe UI, Helvetica, Arial, sans-serif" font-size="12" fill="#8b949e">appearance of MU/TH/UR 6000 in the Alien movies</text>
<circle cx="26" cy="100" r="6" fill="#f1e05a"/>
<text x="38" y="104" font-family="-apple-system, BlinkMacSystemFont, Segoe UI, Helvetica, Arial, sans-serif" font-size="12" fill="#8b949e">JavaScript</text>
<svg x="126" y="91" width="16" height="16" viewBox="0 0 16 16"><path fill-rule="evenodd" d="M8 .25a.75.75 0 0 1 .673.418l1.882 3.815 4.21.612a.75.75 0 0 1 .416 1.279l-3.046 2.97.719 4.192a.75.75 0 0 1-1.088.791L8 12.347l-3.766 1.98a.75.75 0 0 1-1.088-.79l.72-4.194L.818 6.374a.75.75 0 0 1 .416-1.28l4.21-.611L7.327.668A.75.75 0 0 1 8 .25z" fill="#8b949e"/></svg>
<text x="146" y="104" font-family="-apple-system, BlinkMacSystemFont, Segoe UI, Helvetica, Arial, sans-serif" font-size="12" fill="#8b949e">27</text>
<svg x="176" y="91" width="16" height="16" viewBox="0 0 16 16"><path fill-rule="evenodd" d="M5 3.25a.75.75 0 1 1-1.5 0 .75.75 0 0 1 1.5 0zm0 2.122a2.25 2.25 0 1 0-1.5 0v.878A2.25 2.25 0 0 0 5.75 8.5h1.5v2.128a2.251 2.251 0 1 0 1.5 0V8.5h1.5a2.25 2.25 0 0 0 2.25-2.25v-.878a2.25 2.25 0 1 0-1.5 0v.878a.75.75 0 0 1-.75.75h-4.5A.75.75 0 0 1 5 6.25v-.878zm3.75 7.378a.75.75 0 1 1-1.5 0 .75.75 0 0 1 1.5 0zm3-8.75a.75.75 0 1 0 0-1.5.75.75 0 0 0 0 1.5z" fill="#8b949e"/></svg>
<text x="196" y="104" font-family="-apple-system, BlinkMacSystemFont, Segoe UI, Helvetica, Arial, sans-serif" font-size="12" fill="#8b949e">3</text>
</svg>